<?xml version="1.0" encoding="utf-8"?>
<!-- Generator: Adobe Illustrator 19.0.0, SVG Export Plug-In . SVG Version: 6.00 Build 0)  -->
<svg version="1.1" id="Layer_1" xmlns="http://www.w3.org/2000/svg" xmlns:xlink="http://www.w3.org/1999/xlink" x="0px" y="0px"
	 viewBox="0 0 226.6 37" style="enable-background:new 0 0 226.6 37;" xml:space="preserve">
<style type="text/css">
	.st0{fill:#FFFFFF;}
</style>
<g>
	<polygon class="st0" points="0,0 0,0 0,0 0,37 4,37 4,13.3 7.3,11.7 7.3,37 8.9,37 8.9,11 8.9,11 12.2,9.4 12.2,9.4 12.2,9.4 
		12.2,37 13.6,37 13.6,8.8 17,7.2 17,37 21,37 21,37 21,37 21,0 21,0 	"/>
	<g>
		<path class="st0" d="M36.9,7.3c-0.3-1-0.7-1.4-2-1.6V5.1h5.3v0.6c-1.6,0.1-1.8,0.5-1.6,1.2l2.6,8.5h0.1l2.4-7.2
			c0.6-1.9,0.5-2.2-1.4-2.5V5.1h4.7v0.6c-1.3,0.3-1.9,0.9-2.5,2.5l-3.4,10.2h-0.9l-2.8-8.7l-3.3,8.7h-0.9L30,7.1
			c-0.3-0.9-0.6-1.1-2.1-1.4V5.1h5.4v0.6c-1.5,0.1-1.6,0.5-1.4,1.2l2.5,8.5h0.1l2.8-7.2L36.9,7.3z"/>
		<path class="st0" d="M48.8,17.4c1.6-0.1,2-0.2,2-0.8v-10c0-0.6-0.4-0.8-2-0.8V5.1h5.9v0.6c-1.6,0.1-2,0.2-2,0.8v10
			c0,0.6,0.4,0.8,2,0.8V18h-5.9V17.4z"/>
		<path class="st0" d="M57.5,17.4c1.6-0.1,2-0.2,2-0.8v-10c0-0.6-0.4-0.8-2-0.8V5.1h5.9v0.6c-1.6,0.1-2,0.2-2,0.8v10.7h2.1
			c2.6,0,3.2-0.9,3.9-3.6l0.6,0L67.9,18H57.5V17.4z"/>
		<path class="st0" d="M70.5,14.2h0.6c1,2.3,2.3,3.4,3.9,3.4c2,0,2.8-1.3,2.8-2.5c0-1.5-1-2-3.4-2.8c-1.8-0.6-3.7-1.2-3.7-3.6
			c0-2.5,1.9-3.9,4.4-3.9c1.1,0,1.9,0.2,2.5,0.5l0.6-0.6h0.4v3.8h-0.6c-0.6-1.8-1.7-3-3.3-3c-1.3,0-2.4,0.9-2.4,2.4
			c0,1.4,1.1,1.9,3.2,2.6c1.8,0.6,3.6,1.2,3.6,3.6c0,1.9-1.1,4.2-4.4,4.2c-1.1,0-2.2-0.2-2.9-0.5l-1,0.6h-0.5V14.2z"/>
		<path class="st0" d="M81.9,17.4c1.6-0.1,2-0.2,2-0.8v-10c0-0.6-0.4-0.8-2-0.8V5.1h5.8v0.6c-1.7,0.1-1.9,0.2-1.9,0.8V11h6.1V6.6
			c0-0.6-0.1-0.8-1.9-0.8V5.1h5.8v0.6c-1.6,0.1-2,0.2-2,0.8v10c0,0.6,0.4,0.8,2,0.8V18h-5.8v-0.6c1.7-0.1,1.9-0.2,1.9-0.8v-4.9h-6.1
			v4.9c0,0.6,0.1,0.8,1.9,0.8V18h-5.8V17.4z"/>
		<path class="st0" d="M98.5,17.4c1.6-0.1,2-0.2,2-0.8v-10c0-0.6-0.4-0.8-2-0.8V5.1h5.9v0.6c-1.6,0.1-2,0.2-2,0.8v10
			c0,0.6,0.4,0.8,2,0.8V18h-5.9V17.4z"/>
		<path class="st0" d="M111.1,16.5c0,0.6,0.3,0.8,2,0.8V18h-5.9v-0.6c1.6-0.1,2-0.2,2-0.8v-10c0-0.6-0.4-0.8-2-0.8V5.1h5.4
			c3.9,0,5.1,1.5,5.1,3.1c0,1.6-0.9,2.7-3.3,3.2v0.1c2.4,0.2,2.7,1.2,2.9,2.6l0.3,1.9c0.2,1.1,0.6,1.4,2,1.5v0.6c-0.1,0-0.5,0-0.6,0
			c-2.8,0-3.2-0.6-3.4-2.4l-0.1-1.5c-0.2-1.9-1-2.4-3-2.4h-1.4V16.5z M112.6,11.2c2.5,0,3.1-1.1,3.1-2.9c0-1.7-0.9-2.5-3.2-2.5h-1.4
			v5.4H112.6z"/>
		<path class="st0" d="M121.3,17.4c1.6-0.1,2-0.2,2-0.8v-10c0-0.6-0.4-0.8-2-0.8V5.1h10.5l0.1,3.6l-0.6,0c-0.7-2.2-1-2.9-3.2-2.9
			h-2.8v5.1h1.2c1.5,0,2-0.1,2.5-2.2h0.5v5.1h-0.5c-0.5-2-1-2.2-2.5-2.2h-1.2v5.6h2.8c2.6,0,3.2-1,3.9-3.3l0.6,0l-0.1,4h-11.1V17.4z
			"/>
		<path class="st0" d="M139.8,11.7c0-3.9,2.9-6.9,6.6-6.9c1.4,0,2.5,0.5,3.2,0.9l0.5-0.8h0.6v4.2h-0.6c-0.8-2.2-2-3.6-4-3.6
			c-2.3,0-4.3,2.1-4.3,6.1c0,3.8,2.5,5.7,4.6,5.7c2.2,0,3.4-1.4,4.2-3l0.6,0.3c-0.8,1.8-2.5,3.7-5.4,3.7
			C142.3,18.3,139.8,15.7,139.8,11.7z"/>
		<path class="st0" d="M160.7,13.2h-4.4l-0.7,1.9c-0.7,1.8-0.6,2.1,1.1,2.4V18h-4.3v-0.6c1.3-0.3,1.8-1,2.4-2.7l3.9-9.8h0.9l4,10.9
			c0.4,1,0.7,1.4,2.2,1.6V18h-5.8v-0.6c1.7-0.1,2-0.5,1.6-1.5L160.7,13.2z M160.5,12.5l-1.8-5.2h-0.1l-2,5.2H160.5z"/>
		<path class="st0" d="M167.3,17.4c1.6-0.1,2-0.2,2-0.8v-10c0-0.6-0.4-0.8-2-0.8V5.1h5.3c3.9,0,5.2,1.6,5.2,3.5
			c0,1.8-1.3,3.8-5.3,3.8h-1.3v4.1c0,0.6,0.4,0.8,2.2,0.8V18h-6.1V17.4z M172.6,11.7c2.6,0,3.2-1.3,3.2-3.1c0-1.6-0.6-2.8-3.1-2.8
			h-1.5v5.9H172.6z"/>
		<path class="st0" d="M180.3,17.4c1.6-0.1,2-0.2,2-0.8v-10c0-0.6-0.4-0.8-2-0.8V5.1h5.9v0.6c-1.6,0.1-2,0.2-2,0.8v10
			c0,0.6,0.4,0.8,2,0.8V18h-5.9V17.4z"/>
		<path class="st0" d="M191.5,17.4c1.7-0.1,2.2-0.2,2.2-0.8V5.8h-1c-1.9,0-2.2,1-3,3.4l-0.6,0l0.1-4h10.9l0.1,4l-0.6,0
			c-0.6-2.2-1.1-3.4-3-3.4h-1v10.7c0,0.6,0.4,0.8,2.2,0.8V18h-6.2V17.4z"/>
		<path class="st0" d="M209.5,13.2h-4.4l-0.7,1.9c-0.7,1.8-0.6,2.1,1.1,2.4V18h-4.3v-0.6c1.3-0.3,1.8-1,2.4-2.7l3.9-9.8h0.9l4,10.9
			c0.4,1,0.7,1.4,2.2,1.6V18h-5.8v-0.6c1.7-0.1,2-0.5,1.6-1.5L209.5,13.2z M209.2,12.5l-1.8-5.2h-0.1l-2,5.2H209.2z"/>
		<path class="st0" d="M216,17.4c1.6-0.1,2-0.2,2-0.8v-10c0-0.6-0.4-0.8-2-0.8V5.1h5.9v0.6c-1.6,0.1-2,0.2-2,0.8v10.7h2.1
			c2.6,0,3.2-0.9,3.9-3.6l0.6,0l-0.1,4.3H216V17.4z"/>
	</g>
	<rect x="28" y="22.3" class="st0" width="198.6" height="0.4"/>
	<g>
		<path class="st0" d="M31.9,26.6c1.1,0,1.8,0.6,1.8,1.6c0,1-0.7,1.6-1.8,1.6h-0.9v1.9h-0.4v-5.1H31.9z M31.9,29.5
			c0.9,0,1.3-0.5,1.3-1.2c0-0.8-0.5-1.2-1.3-1.2h-0.9v2.4H31.9z"/>
		<path class="st0" d="M49.1,30.3h-2.4l-0.6,1.5h-0.4l2-5.1h0.4l2,5.1h-0.4L49.1,30.3z M49,29.9l-0.9-2.2c-0.1-0.3-0.2-0.6-0.2-0.6
			h0c0,0-0.1,0.3-0.2,0.6l-0.9,2.2H49z"/>
		<path class="st0" d="M65.8,31.8l-1.1-2c-0.1,0-0.2,0-0.4,0h-0.9v2h-0.4v-5.1h1.3c1.1,0,1.8,0.6,1.8,1.6c0,0.7-0.4,1.2-1,1.5
			l1.2,2.1H65.8z M64.4,29.4c0.9,0,1.3-0.5,1.3-1.2c0-0.8-0.5-1.2-1.3-1.2h-0.9v2.4H64.4z"/>
		<path class="st0" d="M82.4,26.6V27h-1.6v4.8h-0.4V27h-1.6v-0.4H82.4z"/>
		<path class="st0" d="M99.1,26.6v5.1h-0.4l-2.4-3.6c-0.4-0.5-0.6-0.9-0.6-0.9h0c0,0,0,0.6,0,1.3v3.1h-0.4v-5.1h0.4l2.3,3.6
			c0.3,0.5,0.6,0.9,0.6,0.9h0c0,0,0-0.6,0-1.3v-3.1H99.1z"/>
		<path class="st0" d="M115.6,31.4v0.4h-3.1v-5.1h3V27H113v1.8h2.1v0.4H113v2.2H115.6z"/>
		<path class="st0" d="M131.5,31.8l-1.1-2c-0.1,0-0.2,0-0.4,0h-0.9v2h-0.4v-5.1h1.3c1.1,0,1.8,0.6,1.8,1.6c0,0.7-0.4,1.2-1,1.5
			l1.2,2.1H131.5z M130.1,29.4c0.9,0,1.3-0.5,1.3-1.2c0-0.8-0.5-1.2-1.3-1.2h-0.9v2.4H130.1z"/>
		<path class="st0" d="M147.7,27.9c-0.1-0.6-0.6-1-1.3-1c-0.7,0-1.2,0.4-1.2,0.9c0,0.6,0.7,0.8,1.3,1.1c0.7,0.3,1.6,0.6,1.6,1.5
			c0,0.8-0.7,1.4-1.7,1.4c-1,0-1.6-0.6-1.7-1.5l0.4-0.1c0.1,0.7,0.5,1.2,1.4,1.2c0.8,0,1.3-0.4,1.3-1c0-0.8-0.8-1-1.5-1.3
			c-0.6-0.2-1.4-0.5-1.4-1.4c0-0.8,0.7-1.3,1.6-1.3c0.9,0,1.5,0.5,1.6,1.3L147.7,27.9z"/>
	</g>
</g>
</svg>
