<?xml version="1.0" encoding="utf-8"?>
<!-- Generator: Adobe Illustrator 19.0.0, SVG Export Plug-In . SVG Version: 6.00 Build 0)  -->
<svg version="1.1" xmlns="http://www.w3.org/2000/svg" xmlns:xlink="http://www.w3.org/1999/xlink" x="0px" y="0px"
	 viewBox="0 0 50 50" style="enable-background:new 0 0 50 50;" xml:space="preserve">

<g id="Layer_2">
</g>
<g id="Layer_1">
	<g>
		<g>
			<g id="XMLID_21_">
				<polygon id="XMLID_22_" class="st0" points="31.4,41.2 9.5,25 31.4,8.8 31.8,9.4 10.7,25 31.8,40.7 				"/>
			</g>
		</g>
		<path id="XMLID_2_" class="st0" d="M25,50C11.2,50,0,38.8,0,25C0,11.2,11.2,0,25,0s25,11.2,25,25C50,38.8,38.8,50,25,50z M25,0.7
			C11.6,0.7,0.7,11.6,0.7,25c0,13.4,10.9,24.3,24.3,24.3c13.4,0,24.3-10.9,24.3-24.3C49.3,11.6,38.4,0.7,25,0.7z"/>
	</g>
</g>
</svg>
