<?xml version="1.0" encoding="utf-8"?>
<!-- Generator: Adobe Illustrator 19.0.0, SVG Export Plug-In . SVG Version: 6.00 Build 0)  -->
<svg version="1.1" id="Layer_1" xmlns="http://www.w3.org/2000/svg" xmlns:xlink="http://www.w3.org/1999/xlink" x="0px" y="0px"
	 viewBox="0 0 50 50.1" style="enable-background:new 0 0 50 50.1;" xml:space="preserve">

<g>
	<path id="XMLID_4_" class="st0" d="M25,50.1c-6.7,0-13-2.6-17.7-7.3c-9.8-9.8-9.8-25.6,0-35.4C12,2.6,18.3,0,25,0s13,2.6,17.7,7.3
		c9.8,9.8,9.8,25.6,0,35.4l0,0C38,47.5,31.7,50.1,25,50.1z M25,0.7c-6.5,0-12.6,2.5-17.2,7.1c-9.5,9.5-9.5,24.9,0,34.4
		c4.6,4.6,10.7,7.1,17.2,7.1c6.5,0,12.6-2.5,17.2-7.1l0,0c9.5-9.5,9.5-24.9,0-34.4C37.6,3.2,31.5,0.7,25,0.7z"/>
	<g>

			<rect id="XMLID_3_" x="7.7" y="24.7" transform="matrix(0.7068 0.7074 -0.7074 0.7068 25.0446 -10.349)" class="st0" width="34.6" height="0.7"/>

			<rect id="XMLID_2_" x="24.7" y="7.7" transform="matrix(0.7071 0.7071 -0.7071 0.7071 25.0301 -10.349)" class="st0" width="0.7" height="34.6"/>
	</g>
</g>
</svg>
