<?xml version="1.0" encoding="utf-8"?>
<!-- Generator: Adobe Illustrator 19.0.0, SVG Export Plug-In . SVG Version: 6.00 Build 0)  -->
<svg version="1.1" id="Capa_1" xmlns="http://www.w3.org/2000/svg" xmlns:xlink="http://www.w3.org/1999/xlink" x="0px" y="0px"
	 viewBox="-156 257 298.3 279.8" style="enable-background:new -156 257 298.3 279.8;" xml:space="preserve">

<g>
	<path class="st0" d="M62.7,379.6l-38.5-6v-67.2c0-16-13-28.9-28.9-28.9h-0.4c-16,0-28.9,13-28.9,28.9v107.9l-39.8-17.1
		c-8-3.4-17.1-2.6-24.4,2.2c-7.3,4.8-11.6,12.8-11.6,21.5v0.4c0,7.4,3.2,14.4,8.7,19.3l67.1,59.7v29c0,4.1,3.4,7.5,7.5,7.5
		s7.5-3.4,7.5-7.5v-32.4c0-2.1-0.9-4.2-2.5-5.6l-69.6-61.9c-2.3-2-3.6-5-3.6-8.1v-0.4c0-3.7,1.8-7,4.9-9c3.1-2,6.8-2.4,10.2-0.9
		l50.2,21.5c0.5,0.2,0.9,0.4,1.4,0.5c0.7,0.2,1.5,0.2,2.2,0.1c0.1,0,0.2,0,0.3,0c0.1,0,0.3,0,0.4-0.1c0.2,0,0.3-0.1,0.4-0.1
		c0.1,0,0.2,0,0.2-0.1c0.2,0,0.3-0.1,0.5-0.2c0.1,0,0.1,0,0.2-0.1c0.2-0.1,0.3-0.1,0.4-0.2c0.1,0,0.1-0.1,0.2-0.1
		c0.1-0.1,0.3-0.1,0.4-0.2c0.1-0.1,0.2-0.1,0.2-0.2c0.1-0.1,0.2-0.1,0.3-0.2c0.1-0.1,0.2-0.1,0.3-0.2c0.1-0.1,0.2-0.1,0.2-0.2
		c0.1-0.1,0.2-0.2,0.3-0.3c0.1-0.1,0.1-0.1,0.2-0.2c0.1-0.1,0.2-0.2,0.3-0.3c0.1-0.1,0.1-0.2,0.2-0.3c0.1-0.1,0.2-0.2,0.2-0.3
		c0.1-0.1,0.2-0.3,0.3-0.4c0-0.1,0.1-0.1,0.1-0.2c0.4-0.7,0.6-1.4,0.8-2.1c0.1-0.5,0.2-1,0.2-1.5V306.4c0-7.7,6.2-13.9,13.9-13.9
		h0.4c7.7,0,13.9,6.2,13.9,13.9v72c0,0.3,0,0.5,0,0.8c-0.4,3.9,2.3,7.5,6.3,8.2l44.9,7c0,0,0.1,0,0.1,0
		c27.1,3.9,47.6,27.4,47.6,54.9v0.8c0,12.7-3.1,25.4-9,36.6l-20.3,39.1c-1.9,3.7-0.5,8.2,3.2,10.1c1.1,0.6,2.3,0.9,3.5,0.9
		c2.7,0,5.3-1.5,6.7-4l20.3-39.1c7-13.4,10.6-28.4,10.6-43.5v-0.8c0-17-6.1-33.4-17.2-46.2C94.8,390.4,79.5,382,62.7,379.6z"/>
	<path class="st0" d="M-98.3,346.5c1.1,0,2.3-0.3,3.4-0.8c2.5-1.3,4.1-3.9,4.1-6.7v-29.8h32.6c4.1,0,7.5-3.4,7.5-7.5
		s-3.4-7.5-7.5-7.5h-32.6v-29.8c0-2.8-1.6-5.4-4.1-6.7c-2.5-1.3-5.6-1-7.8,0.7l-50.2,37.3c-1.9,1.4-3,3.6-3,6s1.1,4.6,3,6l50.2,37.3
		C-101.5,346-99.9,346.5-98.3,346.5z M-105.8,324.1l-30.1-22.4l30.1-22.4C-105.8,279.4-105.8,324.1-105.8,324.1z"/>
	<path class="st0" d="M139.3,295.7l-50.2-37.3c-2.3-1.7-5.3-2-7.8-0.7c-2.5,1.3-4.1,3.9-4.1,6.7v29.8H44.5c-4.1,0-7.5,3.4-7.5,7.5
		s3.4,7.5,7.5,7.5h32.6V339c0,2.8,1.6,5.4,4.1,6.7c1.1,0.5,2.2,0.8,3.4,0.8c1.6,0,3.2-0.5,4.5-1.5l50.2-37.3c1.9-1.4,3-3.6,3-6
		C142.3,299.4,141.2,297.1,139.3,295.7z M92.1,324.1v-44.7l30.1,22.4L92.1,324.1z"/>
</g>
</svg>
